<svg width="20" height="21" viewBox="0 0 20 21" fill="none" xmlns="http://www.w3.org/2000/svg">
<rect y="0.5" width="20" height="20" rx="10" fill="#B94444"/>
<g opacity="0.7">
<path d="M4.30005 9.50191C5.65659 8.79027 6.89103 8.08949 8.17997 7.50481C8.49256 7.36298 9.0382 7.50783 9.38061 7.69273C9.81235 7.92595 10.1265 8.04161 10.5484 7.69956C11.0505 7.2924 11.5762 7.32416 12.1572 7.65123C13.2856 8.28636 14.452 8.85593 15.7 9.50325C14.6539 10.1227 13.5656 10.3603 12.4617 10.1716C10.7672 9.88199 9.10807 9.9075 7.41573 10.1763C6.35881 10.3442 5.31122 10.1208 4.30005 9.50202V9.50191Z" fill="black"/>
<path d="M4.37964 9.92047C8.15555 11.5158 11.8168 11.5175 15.4832 9.96443C15.07 11.5587 12.5472 13.4695 10.6193 13.6718C8.19606 13.9262 5.65743 12.4411 4.37964 9.92047Z" fill="black"/>
</g>
</svg>
