<svg width="20" height="21" viewBox="0 0 20 21" fill="none" xmlns="http://www.w3.org/2000/svg">
<g clip-path="url(#clip0_2_248)">
<rect y="0.5" width="20" height="20" rx="10" fill="#B97C44"/>
<path fill-rule="evenodd" clip-rule="evenodd" d="M10.5201 4.81655C10.5201 4.66629 10.46 4.52219 10.3531 4.41594C10.2463 4.30969 10.1013 4.25 9.9501 4.25C9.79892 4.25 9.65394 4.30969 9.54705 4.41594C9.44015 4.52219 9.3801 4.66629 9.3801 4.81655V5.94964C9.22892 5.94964 9.08394 6.00933 8.97705 6.11558C8.87015 6.22183 8.8101 6.36593 8.8101 6.51619V7.7252C8.72345 7.77492 8.65149 7.84644 8.60147 7.93256C8.55144 8.01869 8.5251 8.11638 8.5251 8.21583V9.99139C8.43845 10.0411 8.36649 10.1126 8.31647 10.1987C8.26644 10.2849 8.2401 10.3826 8.2401 10.482V12.1817C8.08892 12.1817 7.94394 12.2413 7.83705 12.3476C7.73015 12.4538 7.6701 12.5979 7.6701 12.7482V15.5809C7.35964 15.5809 7.1001 15.8389 7.1001 16.1475C7.1001 16.4561 7.1001 16.85 7.1001 16.85H12.8001C12.8001 16.85 12.8001 16.4561 12.8001 16.1475C12.8001 15.8389 12.5406 15.5809 12.2301 15.5809V13.3147C12.2301 13.1645 12.17 13.0204 12.0631 12.9141C11.9563 12.8079 11.8113 12.7482 11.6601 12.7482V11.0486C11.6601 10.9491 11.6338 10.8514 11.5837 10.7653C11.5337 10.6792 11.4617 10.6077 11.3751 10.5579V8.78237C11.3751 8.68293 11.3488 8.58523 11.2987 8.49911C11.2487 8.41299 11.1767 8.34147 11.0901 8.29174V6.51619C11.0901 6.36593 11.03 6.22183 10.9231 6.11558C10.8163 6.00933 10.6713 5.94964 10.5201 5.94964V4.81655Z" fill="black" fill-opacity="0.7"/>
</g>
<defs>
<clipPath id="clip0_2_248">
<rect y="0.5" width="20" height="20" rx="10" fill="white"/>
</clipPath>
</defs>
</svg>
