<svg width="20" height="20" viewBox="0 0 20 20" fill="none" xmlns="http://www.w3.org/2000/svg">
<g clip-path="url(#clip0_2_257)">
<rect width="20" height="20" rx="10" fill="#B7B944"/>
<path d="M7.07138 6.36313C7.06816 6.26414 7.08491 6.16552 7.12064 6.07312C7.15637 5.98071 7.21034 5.89642 7.27936 5.82523C7.34837 5.75405 7.43102 5.69743 7.5224 5.65873C7.61377 5.62004 7.71201 5.60005 7.81128 5.59998H10.2451C10.6469 5.59998 10.9752 5.91971 10.983 6.32158C11.0002 7.18593 11.1144 10.2669 11.8552 13.4222H12.3452C11.8744 11.4158 11.6568 9.43971 11.5563 8.04442H12.2904C12.7343 8.04442 13.0523 8.42233 13.0401 8.8242C13.0234 9.3918 13.0695 10.9919 13.8961 13.4222H14.4101C14.5401 13.4222 14.6647 13.4737 14.7566 13.5654C14.8485 13.6571 14.9001 13.7814 14.9001 13.9111C14.9001 14.1774 14.9001 14.4 14.9001 14.4H5.1001C5.1001 14.4 5.10011 14.1774 5.10011 13.9111C5.10011 13.7814 5.15173 13.6571 5.24363 13.5654C5.33552 13.4737 5.46015 13.4222 5.59011 13.4222H6.20604C7.11499 10.3011 7.09931 7.24509 7.07138 6.36313Z" fill="black" fill-opacity="0.7"/>
</g>
<defs>
<clipPath id="clip0_2_257">
<rect width="20" height="20" rx="10" fill="white"/>
</clipPath>
</defs>
</svg>
