<svg width="20" height="21" viewBox="0 0 20 21" fill="none" xmlns="http://www.w3.org/2000/svg">
<rect y="0.5" width="20" height="20" rx="10" fill="#44B97A"/>
<path d="M12.0999 6.50001C14.309 6.50001 16.0999 8.29087 16.0999 10.5V10.5C16.0999 12.7091 14.309 14.5 12.0999 14.5H7.8999C5.69076 14.5 3.8999 12.7091 3.89991 10.5V10.5C3.89991 8.29086 5.69077 6.5 7.89991 6.50001L12.0999 6.50001ZM8.32331 11.4804V12.4608H9.52087V13.4412H10.4789V12.4608H10.9579C11.2756 12.4608 11.5802 12.3317 11.8047 12.1018C12.0293 11.872 12.1555 11.5603 12.1555 11.2353C12.1555 10.9103 12.0293 10.5986 11.8047 10.3687C11.5802 10.1389 11.2756 10.0098 10.9579 10.0098H9.04185C8.97833 10.0098 8.91741 9.98399 8.87249 9.93802C8.82757 9.89206 8.80234 9.82971 8.80234 9.76471C8.80234 9.69971 8.82757 9.63736 8.87249 9.5914C8.91741 9.54544 8.97833 9.51961 9.04185 9.51961H11.6765V8.53922H10.4789V7.55883H9.52087V8.53922H9.04185C8.72424 8.53922 8.41963 8.66834 8.19505 8.89816C7.97046 9.12798 7.84429 9.43969 7.84429 9.76471C7.84429 10.0897 7.97046 10.4014 8.19505 10.6313C8.41963 10.8611 8.72424 10.9902 9.04185 10.9902H10.9579C11.0215 10.9902 11.0824 11.016 11.1273 11.062C11.1722 11.108 11.1975 11.1703 11.1975 11.2353C11.1975 11.3003 11.1722 11.3626 11.1273 11.4086C11.0824 11.4546 11.0215 11.4804 10.9579 11.4804H8.32331Z" fill="black" fill-opacity="0.7"/>
</svg>
