<svg width="20" height="21" viewBox="0 0 20 21" fill="none" xmlns="http://www.w3.org/2000/svg">
<g clip-path="url(#clip0_2_244)">
<rect y="0.5" width="20" height="20" rx="10" fill="#B97C44"/>
<path fill-rule="evenodd" clip-rule="evenodd" d="M10.8182 4.44995C10.6735 4.44995 10.5348 4.50727 10.4325 4.6093C10.3302 4.71134 10.2727 4.84972 10.2727 4.99402V5.74591L9.97927 5.59902C9.8952 5.55705 9.80177 5.53725 9.70786 5.54148C9.61395 5.54571 9.52269 5.57384 9.44276 5.62319C9.36283 5.67254 9.29689 5.74147 9.25121 5.82343C9.20554 5.90538 9.18165 5.99763 9.18181 6.09139V10.21L7.70691 11.6806C7.60358 11.7836 7.5455 11.9233 7.54545 12.069V15.3312C7.24836 15.3312 7 15.579 7 15.8753C7 16.1716 7.00002 16.55 7.00002 16.55H13C13 16.55 13 16.1716 13 15.8753C13 15.579 12.7516 15.3312 12.4545 15.3312V7.17354C12.4545 7.07154 12.426 6.97156 12.3723 6.8848C12.3185 6.79803 12.2416 6.7279 12.1502 6.68225L11.3636 6.28998V4.99402C11.3636 4.84972 11.3062 4.71134 11.2039 4.6093C11.1016 4.50727 10.9628 4.44995 10.8182 4.44995ZM10.8978 7.95373C10.9359 7.91562 10.9845 7.88964 11.0374 7.87909C11.0903 7.86854 11.1452 7.87388 11.1951 7.89444C11.245 7.915 11.2876 7.94986 11.3176 7.9946C11.3476 8.03934 11.3636 8.09196 11.3636 8.14578V8.91509C11.3637 8.95084 11.3567 8.98625 11.343 9.0193C11.3294 9.05234 11.3093 9.08238 11.284 9.10769L10.7385 9.65175C10.7004 9.6899 10.6518 9.71588 10.5988 9.72642C10.5458 9.73696 10.4909 9.73157 10.441 9.71094C10.3911 9.69031 10.3485 9.65537 10.3185 9.61054C10.2886 9.56572 10.2726 9.51303 10.2727 9.45916V8.68985C10.2727 8.6541 10.2797 8.61869 10.2933 8.58564C10.307 8.5526 10.327 8.52256 10.3524 8.49725L10.8978 7.95373ZM11.1018 11.0451C11.2344 10.9733 11.3636 11.1006 11.3636 11.2508V12.1795C11.3637 12.2152 11.3567 12.2506 11.343 12.2837C11.3294 12.3167 11.3093 12.3468 11.284 12.3721L9.48781 14.1637C9.46244 14.1889 9.43232 14.2089 9.39919 14.2226C9.36606 14.2362 9.33056 14.2432 9.29472 14.2431H8.90909C8.83675 14.2431 8.76739 14.2145 8.71624 14.1634C8.66509 14.1124 8.63636 14.0432 8.63636 13.9711V13.5864C8.6363 13.5507 8.6433 13.5153 8.65696 13.4822C8.67062 13.4492 8.69069 13.4191 8.716 13.3938L10.978 11.1381C11.0148 11.1015 11.0567 11.0704 11.1024 11.0456L11.1018 11.0451Z" fill="black" fill-opacity="0.7"/>
</g>
<defs>
<clipPath id="clip0_2_244">
<rect y="0.5" width="20" height="20" rx="10" fill="white"/>
</clipPath>
</defs>
</svg>
