<svg width="20" height="20" viewBox="0 0 20 20" fill="none" xmlns="http://www.w3.org/2000/svg">
<rect width="20" height="20" rx="10" fill="#7882B9"/>
<path d="M7.38995 10C8.18945 10 8.83995 9.34576 8.83995 8.54167C8.83995 7.73758 8.18945 7.08333 7.38995 7.08333C6.59046 7.08333 5.93995 7.73758 5.93995 8.54167C5.93995 9.34576 6.59046 10 7.38995 10ZM13.77 7.66667H9.70995C9.54973 7.66667 9.41995 7.79719 9.41995 7.95833V10.5833H5.35995V6.79167C5.35995 6.63052 5.23018 6.5 5.06995 6.5H4.48995C4.32973 6.5 4.19995 6.63052 4.19995 6.79167V13.2083C4.19995 13.3695 4.32973 13.5 4.48995 13.5H5.06995C5.23018 13.5 5.35995 13.3695 5.35995 13.2083V12.3333H14.64V13.2083C14.64 13.3695 14.7697 13.5 14.93 13.5H15.51C15.6702 13.5 15.8 13.3695 15.8 13.2083V9.70833C15.8 8.58068 14.8912 7.66667 13.77 7.66667Z" fill="black" fill-opacity="0.7"/>
</svg>
