<svg width="20" height="20" viewBox="0 0 20 20" fill="none" xmlns="http://www.w3.org/2000/svg">
<rect width="20" height="20" rx="10" fill="#7882B9"/>
<path d="M5.64995 10.72H15.4375C15.5356 10.72 15.6206 10.7556 15.6923 10.8269C15.7641 10.8981 15.8 10.9825 15.8 11.08V13.6H14.35V12.16H5.64995V13.6H4.19995V6.76002C4.19995 6.66252 4.23582 6.57815 4.30757 6.5069C4.37931 6.43565 4.46427 6.40002 4.56245 6.40002H5.28745C5.38563 6.40002 5.47059 6.43565 5.54233 6.5069C5.61408 6.57815 5.64995 6.66252 5.64995 6.76002V10.72ZM8.91245 8.92002C8.91245 8.52252 8.77085 8.18315 8.48765 7.9019C8.20444 7.62065 7.86271 7.48002 7.46245 7.48002C7.06219 7.48002 6.72046 7.62065 6.43726 7.9019C6.15405 8.18315 6.01245 8.52252 6.01245 8.92002C6.01245 9.31752 6.15405 9.6569 6.43726 9.93815C6.72046 10.2194 7.06219 10.36 7.46245 10.36C7.86271 10.36 8.20444 10.2194 8.48765 9.93815C8.77085 9.6569 8.91245 9.31752 8.91245 8.92002ZM15.8 10.36V10C15.8 9.40377 15.5875 8.89471 15.1627 8.47284C14.7379 8.05096 14.2253 7.84002 13.625 7.84002H9.63745C9.53927 7.84002 9.45431 7.87565 9.38257 7.9469C9.31082 8.01815 9.27495 8.10252 9.27495 8.20002V10.36H15.8Z" fill="black" fill-opacity="0.7"/>
</svg>
