<svg width="20" height="20" viewBox="0 0 20 20" fill="none" xmlns="http://www.w3.org/2000/svg">
<rect width="20" height="20" rx="10" fill="#44ABB9"/>
<path d="M13.9381 9.05895C13.6538 9.05882 13.3718 9.1104 13.1059 9.21118L11.87 7.08826H13.1516C13.2559 7.08826 13.3559 7.12979 13.4297 7.2037C13.5034 7.27762 13.5449 7.37787 13.5449 7.4824C13.5449 7.58693 13.5863 7.68718 13.6601 7.7611C13.7338 7.83501 13.8338 7.87654 13.9381 7.87654C14.0425 7.87654 14.1425 7.83501 14.2162 7.7611C14.29 7.68718 14.3314 7.58693 14.3314 7.4824C14.3314 7.1688 14.2071 6.86805 13.9859 6.64631C13.7646 6.42456 13.4645 6.29999 13.1516 6.29999H11.1851C11.1162 6.30014 11.0485 6.31847 10.9888 6.35313C10.9292 6.38778 10.8796 6.43755 10.8452 6.49744C10.8108 6.55733 10.7927 6.62524 10.7928 6.69435C10.7928 6.76346 10.811 6.83134 10.8454 6.89119L11.4182 7.87654H8.59241L7.78863 6.49706C7.75419 6.43727 7.70468 6.3876 7.64506 6.35302C7.58545 6.31843 7.51781 6.30014 7.44893 6.29999H6.07243C5.96812 6.29999 5.86809 6.34151 5.79433 6.41543C5.72058 6.48934 5.67914 6.58959 5.67914 6.69412C5.67914 6.79866 5.72058 6.89891 5.79433 6.97282C5.86809 7.04674 5.96812 7.08826 6.07243 7.08826H7.22328L7.89728 8.24653L7.12496 9.30824C6.59433 9.04212 5.98329 8.98551 5.41297 9.14965C4.84266 9.31378 4.35469 9.68667 4.04581 10.1944C3.73693 10.7021 3.62969 11.3076 3.74533 11.8909C3.86097 12.4741 4.19106 12.9926 4.67017 13.3434C5.14928 13.6942 5.74242 13.8518 6.33203 13.785C6.92164 13.7181 7.46467 13.4317 7.85347 12.9825C8.24227 12.5333 8.44846 11.9541 8.43117 11.3597C8.41388 10.7653 8.17437 10.1991 7.76012 9.77332L8.32989 8.98997L9.86223 11.6208C9.88618 11.669 9.91972 11.7118 9.9608 11.7465C10.0019 11.7812 10.0496 11.8071 10.1011 11.8226C10.1525 11.8381 10.2066 11.8429 10.2599 11.8366C10.3133 11.8304 10.3648 11.8132 10.4113 11.7863C10.4578 11.7593 10.4983 11.7231 10.5303 11.6798C10.5623 11.6365 10.5851 11.5872 10.5973 11.5347C10.6095 11.4823 10.6109 11.4279 10.6013 11.3749C10.5917 11.322 10.5714 11.2715 10.5416 11.2267L9.05108 8.66481H11.8768L12.4269 9.60926C12.0011 9.96599 11.7143 10.4618 11.617 11.0094C11.5198 11.5571 11.6183 12.1216 11.8952 12.6036C12.1721 13.0857 12.6098 13.4545 13.1312 13.6453C13.6526 13.836 14.2244 13.8364 14.7461 13.6464C15.2678 13.4564 15.706 13.0882 15.9836 12.6065C16.2612 12.1249 16.3605 11.5605 16.264 11.0127C16.1675 10.4649 15.8815 9.96874 15.4561 9.6114C15.0307 9.25407 14.4932 9.05846 13.9381 9.05895ZM7.64557 11.4238C7.64567 11.761 7.53787 12.0893 7.33801 12.3606C7.13816 12.6319 6.85677 12.8318 6.53518 12.931C6.21359 13.0302 5.86873 13.0234 5.55126 12.9117C5.23378 12.8 4.96041 12.5892 4.77128 12.3103C4.58216 12.0314 4.48726 11.6991 4.5005 11.3621C4.51375 11.0252 4.63445 10.7014 4.84488 10.4383C5.05531 10.1751 5.34438 9.98655 5.66964 9.90021C5.99491 9.81387 6.33922 9.83432 6.65203 9.95856L5.75485 11.1902C5.72219 11.2319 5.69823 11.2797 5.68441 11.3308C5.67059 11.3819 5.6672 11.4353 5.67443 11.4878C5.68166 11.5402 5.69937 11.5907 5.7265 11.6362C5.75363 11.6816 5.78962 11.7211 5.83232 11.7523C5.87502 11.7835 5.92356 11.8058 5.97504 11.8178C6.02652 11.8297 6.07988 11.8312 6.13193 11.8221C6.18399 11.8129 6.23367 11.7934 6.27801 11.7645C6.32235 11.7357 6.36044 11.6982 6.39001 11.6543L7.28719 10.4227C7.51919 10.7044 7.64592 11.0585 7.64557 11.4238ZM13.9381 13.0003C13.6266 13.0001 13.3221 12.9071 13.0633 12.7332C12.8045 12.5593 12.603 12.3123 12.4845 12.0235C12.366 11.7348 12.3357 11.4172 12.3974 11.1111C12.4592 10.8051 12.6103 10.5243 12.8315 10.3044L13.5984 11.6208C13.6224 11.669 13.6559 11.7118 13.697 11.7465C13.7381 11.7812 13.7858 11.8071 13.8373 11.8226C13.8887 11.8381 13.9428 11.8429 13.9962 11.8366C14.0495 11.8304 14.101 11.8132 14.1475 11.7863C14.194 11.7593 14.2345 11.7231 14.2665 11.6798C14.2985 11.6365 14.3213 11.5872 14.3335 11.5347C14.3457 11.4823 14.3471 11.4279 14.3375 11.3749C14.3279 11.322 14.3076 11.2715 14.2778 11.2267L13.5104 9.90683C13.7268 9.84544 13.9539 9.83126 14.1762 9.86525C14.3985 9.89924 14.611 9.9806 14.7993 10.1039C14.9875 10.2271 15.1473 10.3894 15.2677 10.5798C15.3881 10.7701 15.4663 10.9841 15.4972 11.2074C15.5281 11.4306 15.5108 11.6579 15.4466 11.8739C15.3824 12.0899 15.2727 12.2896 15.125 12.4595C14.9772 12.6295 14.7948 12.7656 14.5901 12.8589C14.3854 12.9522 14.163 13.0004 13.9381 13.0003Z" fill="black" fill-opacity="0.7"/>
</svg>
