<svg width="20" height="20" viewBox="0 0 20 20" fill="none" xmlns="http://www.w3.org/2000/svg">
<rect width="20" height="20" rx="10" fill="#44ABB9"/>
<path d="M13.99 8.92143H13.705L11.7674 6.52357C11.6606 6.39141 11.5251 6.28473 11.371 6.21142C11.2169 6.1381 11.0481 6.10002 10.8771 6.1H7.06686C6.60071 6.1 6.18158 6.38091 6.00845 6.80941L5.15505 8.96128C4.66414 9.08719 4.30005 9.52468 4.30005 10.05V12.025C4.30005 12.1809 4.42759 12.3071 4.58505 12.3071H5.44005C5.44005 13.2421 6.20563 14 7.15005 14C8.09447 14 8.86005 13.2421 8.86005 12.3071H11.14C11.14 13.2421 11.9056 14 12.85 14C13.7945 14 14.56 13.2421 14.56 12.3071H15.415C15.5725 12.3071 15.7 12.1809 15.7 12.025V10.6143C15.7 9.67933 14.9345 8.92143 13.99 8.92143ZM7.15005 13.1536C6.67855 13.1536 6.29505 12.7739 6.29505 12.3071C6.29505 11.8404 6.67855 11.4607 7.15005 11.4607C7.62155 11.4607 8.00505 11.8404 8.00505 12.3071C8.00505 12.7739 7.62155 13.1536 7.15005 13.1536ZM8.43255 8.92143H6.38286L7.06686 7.22857H8.43255V8.92143ZM9.28755 8.92143V7.22857H10.8771L12.2451 8.92143H9.28755ZM12.85 13.1536C12.3786 13.1536 11.995 12.7739 11.995 12.3071C11.995 11.8404 12.3786 11.4607 12.85 11.4607C13.3215 11.4607 13.705 11.8404 13.705 12.3071C13.705 12.7739 13.3215 13.1536 12.85 13.1536Z" fill="black" fill-opacity="0.7"/>
</svg>
