<svg width="20" height="20" viewBox="0 0 20 20" fill="none" xmlns="http://www.w3.org/2000/svg">
<rect width="20" height="20" rx="10" fill="#44ABB9"/>
<path d="M8.01803 6.5H11.9818C12.2793 6.5 12.544 6.68812 12.6424 6.96812L13.2133 8.6H6.78646L7.3574 6.96812C7.45584 6.68812 7.72053 6.5 8.01803 6.5ZM6.03615 6.50656L5.26615 8.705C4.75865 8.915 4.3999 9.41594 4.3999 10V11.75C4.3999 12.2684 4.68209 12.7212 5.0999 12.9619V14.2C5.0999 14.5872 5.41271 14.9 5.7999 14.9H6.4999C6.88709 14.9 7.1999 14.5872 7.1999 14.2V13.15H12.7999V14.2C12.7999 14.5872 13.1127 14.9 13.4999 14.9H14.1999C14.5871 14.9 14.8999 14.5872 14.8999 14.2V12.9619C15.3177 12.7191 15.5999 12.2684 15.5999 11.75V10C15.5999 9.41594 15.2412 8.915 14.7337 8.705L13.9637 6.50656C13.6683 5.66437 12.8743 5.1 11.9818 5.1H8.01803C7.12553 5.1 6.33146 5.66437 6.03615 6.50656ZM8.9499 10.35H11.0499C11.2424 10.35 11.3999 10.5075 11.3999 10.7V11.4C11.3999 11.5925 11.2424 11.75 11.0499 11.75H8.9499C8.7574 11.75 8.5999 11.5925 8.5999 11.4V10.7C8.5999 10.5075 8.7574 10.35 8.9499 10.35ZM5.4499 10.525C5.4499 10.2341 5.68396 10 5.9749 10H6.6749C6.96584 10 7.1999 10.2341 7.1999 10.525C7.1999 10.8159 6.96584 11.05 6.6749 11.05H5.9749C5.68396 11.05 5.4499 10.8159 5.4499 10.525ZM13.3249 10H14.0249C14.3158 10 14.5499 10.2341 14.5499 10.525C14.5499 10.8159 14.3158 11.05 14.0249 11.05H13.3249C13.034 11.05 12.7999 10.8159 12.7999 10.525C12.7999 10.2341 13.034 10 13.3249 10Z" fill="black" fill-opacity="0.7"/>
</svg>
