<svg width="20" height="20" viewBox="0 0 20 20" fill="none" xmlns="http://www.w3.org/2000/svg">
<rect width="20" height="20" rx="10" fill="#44ABB9"/>
<path d="M7.07812 10.92C7.07812 10.667 6.99398 10.4504 6.82568 10.2703C6.65739 10.0901 6.45508 10 6.21875 10C5.98242 10 5.78011 10.0901 5.61182 10.2703C5.44352 10.4504 5.35938 10.667 5.35938 10.92C5.35938 11.173 5.44352 11.3896 5.61182 11.5698C5.78011 11.7499 5.98242 11.84 6.21875 11.84C6.45508 11.84 6.65739 11.7499 6.82568 11.5698C6.99398 11.3896 7.07812 11.173 7.07812 10.92ZM7.27148 9.08H12.7285L12.2505 7.02725C12.2433 6.99658 12.2183 6.96304 12.1753 6.92663C12.1323 6.89021 12.0947 6.872 12.0625 6.872H7.9375C7.90527 6.872 7.86768 6.89021 7.82471 6.92663C7.78174 6.96304 7.75667 6.99658 7.74951 7.02725L7.27148 9.08ZM14.6406 10.92C14.6406 10.667 14.5565 10.4504 14.3882 10.2703C14.2199 10.0901 14.0176 10 13.7812 10C13.5449 10 13.3426 10.0901 13.1743 10.2703C13.006 10.4504 12.9219 10.667 12.9219 10.92C12.9219 11.173 13.006 11.3896 13.1743 11.5698C13.3426 11.7499 13.5449 11.84 13.7812 11.84C14.0176 11.84 14.2199 11.7499 14.3882 11.5698C14.5565 11.3896 14.6406 11.173 14.6406 10.92ZM15.5 10.368V12.576C15.5 12.6297 15.4839 12.6738 15.4517 12.7083C15.4194 12.7428 15.3783 12.76 15.3281 12.76H14.8125V13.496C14.8125 13.8027 14.7122 14.0633 14.5117 14.278C14.3112 14.4927 14.0677 14.6 13.7812 14.6C13.4948 14.6 13.2513 14.4927 13.0508 14.278C12.8503 14.0633 12.75 13.8027 12.75 13.496V12.76H7.25V13.496C7.25 13.8027 7.14974 14.0633 6.94922 14.278C6.7487 14.4927 6.50521 14.6 6.21875 14.6C5.93229 14.6 5.6888 14.4927 5.48828 14.278C5.28776 14.0633 5.1875 13.8027 5.1875 13.496V12.76H4.67188C4.62174 12.76 4.58057 12.7428 4.54834 12.7083C4.51611 12.6738 4.5 12.6297 4.5 12.576V10.368C4.5 10.0115 4.61727 9.70771 4.85181 9.45663C5.08634 9.20554 5.37012 9.08 5.70312 9.08H5.85352L6.41748 6.67075C6.49984 6.31042 6.68604 6.00854 6.97607 5.76513C7.26611 5.52171 7.58659 5.4 7.9375 5.4H12.0625C12.4134 5.4 12.7339 5.52171 13.0239 5.76513C13.314 6.00854 13.5002 6.31042 13.5825 6.67075L14.1465 9.08H14.2969C14.6299 9.08 14.9137 9.20554 15.1482 9.45663C15.3827 9.70771 15.5 10.0115 15.5 10.368Z" fill="black" fill-opacity="0.7"/>
</svg>
