<svg width="20" height="21" viewBox="0 0 20 21" fill="none" xmlns="http://www.w3.org/2000/svg">
<rect y="0.5" width="20" height="20" rx="10" fill="#B97C44"/>
<path d="M13.7526 7.03158H13.2368V6.51579C13.2368 6.37899 13.1825 6.2478 13.0858 6.15107C12.989 6.05434 12.8578 6 12.7211 6H6.53158C6.39478 6 6.26359 6.05434 6.16686 6.15107C6.07013 6.2478 6.01579 6.37899 6.01579 6.51579V11.1579C6.01579 11.7051 6.23316 12.2299 6.62007 12.6168C7.00699 13.0037 7.53176 13.2211 8.07895 13.2211H11.1737C12.132 13.2211 12.933 12.5614 13.1636 11.6737H13.7526C14.163 11.6737 14.5566 11.5107 14.8468 11.2205C15.137 10.9303 15.3 10.5367 15.3 10.1263V8.57895C15.3 8.16856 15.137 7.77498 14.8468 7.48479C14.5566 7.1946 14.163 7.03158 13.7526 7.03158ZM14.2684 10.1263C14.2684 10.2631 14.2141 10.3943 14.1174 10.491C14.0206 10.5878 13.8894 10.6421 13.7526 10.6421H13.2368V8.06316H13.7526C13.8894 8.06316 14.0206 8.1175 14.1174 8.21423C14.2141 8.31096 14.2684 8.44215 14.2684 8.57895V10.1263ZM13.2368 14.2526H5.5C5.5 15.1057 6.19425 15.8 7.04737 15.8H12.7211C13.5742 15.8 14.2684 15.1057 14.2684 14.2526H13.2368Z" fill="black" fill-opacity="0.7"/>
</svg>
