<svg width="20" height="20" viewBox="0 0 20 20" fill="none" xmlns="http://www.w3.org/2000/svg">
<rect width="20" height="20" rx="10" fill="#62B944"/>
<path d="M9.99803 13.6909C10.4541 13.6909 10.8412 13.9756 10.9897 14.3711C11.2813 14.3078 11.5623 14.2182 11.8328 14.0969L10.8995 11.9087C10.6238 12.0406 10.3215 12.1091 9.99803 12.1091C9.67456 12.1091 9.37231 12.0406 9.09656 11.9087L8.16327 14.0969C8.43372 14.2182 8.71476 14.3078 9.00642 14.3711C9.15489 13.9756 9.54199 13.6909 9.99803 13.6909ZM13.3123 13.0371C13.1797 12.8578 13.0789 12.6364 13.0789 12.3727C13.0789 11.798 13.5562 11.3182 14.1395 11.3182L14.3039 11.334C14.4365 10.9122 14.5054 10.464 14.5054 10C14.5054 9.53601 14.4365 9.08783 14.3039 8.68183H14.1395C13.5509 8.68183 13.0789 8.21256 13.0789 7.62729C13.0789 7.36365 13.1638 7.14747 13.3123 6.96292C12.6927 6.29351 11.8824 5.82811 10.9897 5.62892C10.8412 6.02438 10.4541 6.3091 9.99803 6.3091C9.54199 6.3091 9.15489 6.02438 9.00642 5.62892C8.11368 5.82811 7.30337 6.29351 6.6838 6.96292C6.83228 7.14747 6.92243 7.37947 6.92243 7.62729C6.92243 7.90697 6.81069 8.1752 6.6118 8.37296C6.41291 8.57073 6.14315 8.68183 5.86187 8.68183H5.69218C5.55962 9.0931 5.49068 9.53601 5.49068 10C5.49068 10.4693 5.56492 10.9175 5.69749 11.3446L5.86187 11.3182C6.45048 11.3182 6.92243 11.8033 6.92243 12.3727C6.92243 12.6364 6.83758 12.8631 6.68911 13.0424C6.85879 13.2269 7.04969 13.3956 7.2459 13.5486L8.25342 11.1969C8.0148 10.8542 7.87693 10.4429 7.87693 10C7.87693 9.44065 8.1004 8.90419 8.49818 8.50866C8.89597 8.11313 9.43548 7.89092 9.99803 7.89092C10.5606 7.89092 11.1001 8.11313 11.4979 8.50866C11.8957 8.90419 12.1191 9.44065 12.1191 10C12.1191 10.4429 11.9813 10.8542 11.7426 11.1969L12.7502 13.5486C12.9517 13.3956 13.1373 13.2216 13.3123 13.0371ZM9.99803 15.8C9.46776 15.8 9.02232 15.4098 8.93748 14.8984C8.60046 14.8265 8.27174 14.7205 7.95647 14.582L7.4368 15.8H6.28609L7.03379 14.0495C6.7519 13.8491 6.49393 13.6173 6.26488 13.3587C6.13762 13.4115 6.00505 13.4273 5.86187 13.4273C5.5806 13.4273 5.31084 13.3162 5.11195 13.1184C4.91306 12.9207 4.80132 12.6524 4.80132 12.3727C4.80132 12.0458 4.9604 11.7506 5.20963 11.5555C4.87895 10.5503 4.8771 9.4667 5.20433 8.46038C5.03107 8.32426 4.90471 8.13791 4.84276 7.92717C4.78082 7.71642 4.78637 7.49173 4.85864 7.28427C4.93091 7.0768 5.06631 6.89684 5.24608 6.76934C5.42585 6.64184 5.64106 6.57313 5.86187 6.57274C5.99975 6.57274 6.13231 6.60438 6.24898 6.65183C6.95603 5.86333 7.89803 5.32018 8.93748 5.10165C9.02232 4.59019 9.46776 4.20001 9.99803 4.20001C10.5283 4.20001 10.9737 4.59019 11.0586 5.10165C12.1191 5.3231 13.0418 5.87674 13.7418 6.64656C13.8638 6.5991 13.9963 6.57274 14.1395 6.57274C14.4208 6.57274 14.6905 6.68384 14.8894 6.88161C15.0883 7.07937 15.2 7.3476 15.2 7.62729C15.1995 7.78701 15.1624 7.94451 15.0917 8.08792C15.021 8.23132 14.9184 8.35687 14.7917 8.4551C14.9508 8.94547 15.0357 9.47274 15.0357 10C15.0357 10.5273 14.9508 11.0546 14.7917 11.5449C15.0357 11.74 15.2 12.0406 15.2 12.3727C15.2 12.9633 14.7281 13.4273 14.1395 13.4273C13.9963 13.4273 13.8638 13.4062 13.7365 13.3535C13.5032 13.6118 13.2433 13.8438 12.9623 14.0495L13.71 15.8H12.5593L12.0396 14.582C11.7214 14.7191 11.3927 14.8298 11.0586 14.8984C10.9737 15.4098 10.5283 15.8 9.99803 15.8Z" fill="black" fill-opacity="0.7"/>
</svg>
