<svg width="20" height="21" viewBox="0 0 20 21" fill="none" xmlns="http://www.w3.org/2000/svg">
<rect y="0.5" width="20" height="20" rx="10" fill="#44B9B2"/>
<path d="M14 11V14.5C14 14.7652 13.8946 15.0196 13.7071 15.2071C13.5196 15.3946 13.2652 15.5 13 15.5C12.7348 15.5 12.4804 15.3946 12.2929 15.2071C12.1054 15.0196 12 14.7652 12 14.5V12H11V7C11 6.60218 11.158 6.22064 11.4393 5.93934C11.7206 5.65804 12.1022 5.5 12.5 5.5H14V11ZM7 10.5C6.73478 10.5 6.48043 10.3946 6.29289 10.2071C6.10536 10.0196 6 9.76522 6 9.5V6C6 5.86739 6.05268 5.74021 6.14645 5.64645C6.24021 5.55268 6.36739 5.5 6.5 5.5C6.63261 5.5 6.75979 5.55268 6.85355 5.64645C6.94732 5.74021 7 5.86739 7 6V8H7.5V6C7.5 5.86739 7.55268 5.74021 7.64645 5.64645C7.74021 5.55268 7.86739 5.5 8 5.5C8.13261 5.5 8.25979 5.55268 8.35355 5.64645C8.44732 5.74021 8.5 5.86739 8.5 6V8H9V6C9 5.86739 9.05268 5.74021 9.14645 5.64645C9.24021 5.55268 9.36739 5.5 9.5 5.5C9.63261 5.5 9.75979 5.55268 9.85355 5.64645C9.94732 5.74021 10 5.86739 10 6V9.5C10 9.76522 9.89464 10.0196 9.70711 10.2071C9.51957 10.3946 9.26522 10.5 9 10.5V14.5C9 14.7652 8.89464 15.0196 8.70711 15.2071C8.51957 15.3946 8.26522 15.5 8 15.5C7.73478 15.5 7.48043 15.3946 7.29289 15.2071C7.10536 15.0196 7 14.7652 7 14.5V10.5Z" fill="black" fill-opacity="0.7"/>
</svg>
