<svg width="20" height="21" viewBox="0 0 20 21" fill="none" xmlns="http://www.w3.org/2000/svg">
<rect y="0.5" width="20" height="20" rx="10" fill="#44ABB9"/>
<path d="M11.5 14.1H5.49995C5.33495 14.1 5.19995 14.235 5.19995 14.4V15C5.19995 15.165 5.33495 15.3 5.49995 15.3H11.5C11.665 15.3 11.8 15.165 11.8 15V14.4C11.8 14.235 11.665 14.1 11.5 14.1ZM14.4475 7.71187L12.9287 6.19312C12.8125 6.07687 12.6212 6.07687 12.505 6.19312L12.2931 6.405C12.1768 6.52125 12.1768 6.7125 12.2931 6.82875L13 7.53562V8.7C13 9.22687 13.3918 9.66187 13.9 9.735V12.75C13.9 12.9975 13.6975 13.2 13.45 13.2C13.2025 13.2 13 12.9975 13 12.75V12.15C13 11.2387 12.2612 10.5 11.35 10.5H11.2V6.9C11.2 6.23812 10.6618 5.7 9.99995 5.7H6.99995C6.33808 5.7 5.79995 6.23812 5.79995 6.9V13.5H11.2V11.4H11.35C11.7643 11.4 12.1 11.7356 12.1 12.15V12.6712C12.1 13.3781 12.6062 14.0212 13.3093 14.0944C14.1156 14.175 14.8 13.5412 14.8 12.75V8.56125C14.8 8.2425 14.6725 7.93687 14.4475 7.71187ZM9.99995 9.3H6.99995V6.9H9.99995V9.3Z" fill="black" fill-opacity="0.7"/>
</svg>
