<svg width="20" height="20" viewBox="0 0 20 20" fill="none" xmlns="http://www.w3.org/2000/svg">
<rect width="20" height="20" rx="10" fill="#5EC7A1"/>
<path d="M13.9999 15.2H5.8999V15.2C5.8999 14.3155 6.61688 13.5985 7.50133 13.5985H12.3985C13.2829 13.5985 13.9999 14.3155 13.9999 15.2V15.2ZM12.4698 6.36997H11.1185V5.81222C11.1185 5.19793 10.6205 4.69995 10.0062 4.69995V4.69995C9.39191 4.69995 8.89393 5.19793 8.89393 5.81222V6.36997H7.42999V5.43206C7.42999 5.02773 7.10222 4.69995 6.69789 4.69995V4.69995C6.29356 4.69995 5.96578 5.02773 5.96578 5.43206V7.73385H13.934V5.43206C13.934 5.02773 13.6062 4.69995 13.2019 4.69995V4.69995C12.7976 4.69995 12.4698 5.02773 12.4698 5.43206V6.36997ZM13.1003 8.16436H6.79954V13.1715H13.1003V8.16436Z" fill="black" fill-opacity="0.7"/>
</svg>
