<svg width="20" height="20" viewBox="0 0 20 20" fill="none" xmlns="http://www.w3.org/2000/svg">
<rect width="20" height="20" rx="10" fill="#62B944"/>
<path d="M7.4794 7.65869C7.13153 8.03791 6.86707 8.49579 6.71534 9.00284C7.1877 8.93221 7.5501 8.52232 7.5501 8.02724C7.5501 7.89695 7.525 7.77256 7.4794 7.65869Z" fill="black" fill-opacity="0.7"/>
<path fill-rule="evenodd" clip-rule="evenodd" d="M5.5901 8.02724C5.5901 8.57199 6.02886 9.01359 6.5701 9.01359C6.61945 9.01359 6.66795 9.00992 6.71534 9.00284C6.86707 8.49579 7.13153 8.03791 7.4794 7.65869C7.33435 7.29651 6.98188 7.04089 6.5701 7.04089C6.02886 7.04089 5.5901 7.4825 5.5901 8.02724ZM6.5701 7.53407C6.29948 7.53407 6.0801 7.75487 6.0801 8.02724C6.0801 8.29962 6.29948 8.52042 6.5701 8.52042C6.84072 8.52042 7.0601 8.29962 7.0601 8.02724C7.0601 7.75487 6.84072 7.53407 6.5701 7.53407Z" fill="black" fill-opacity="0.7"/>
<path d="M7.5501 9.99995C7.5501 8.63808 8.647 7.53407 10.0001 7.53407C9.4557 7.53407 8.98042 7.23622 8.72635 6.79359C8.40959 6.92118 8.11615 7.09493 7.85424 7.30659C7.97262 7.51984 8.0401 7.76561 8.0401 8.02724C8.0401 8.83266 7.40068 9.48776 6.60489 9.50636C6.58196 9.66757 6.5701 9.83236 6.5701 9.99995C6.5701 10.1675 6.58196 10.3323 6.60489 10.4935C7.40068 10.5121 8.0401 11.1672 8.0401 11.9726C8.0401 12.2343 7.97262 12.4801 7.85424 12.6933C7.9895 12.8026 8.13317 12.9018 8.28413 12.9898L8.65352 12.0603C7.98878 11.6193 7.5501 10.8612 7.5501 9.99995Z" fill="black" fill-opacity="0.7"/>
<path d="M6.71534 10.9971C6.86707 11.5041 7.13153 11.962 7.4794 12.3412C7.525 12.2273 7.5501 12.1029 7.5501 11.9726C7.5501 11.4776 7.1877 11.0677 6.71534 10.9971Z" fill="black" fill-opacity="0.7"/>
<path fill-rule="evenodd" clip-rule="evenodd" d="M5.5901 11.9726C5.5901 12.5174 6.02886 12.959 6.5701 12.959C6.98188 12.959 7.33435 12.7034 7.4794 12.3412C7.13153 11.962 6.86707 11.5041 6.71534 10.9971C6.66795 10.99 6.61945 10.9863 6.5701 10.9863C6.02886 10.9863 5.5901 11.4279 5.5901 11.9726ZM6.5701 11.4795C6.29948 11.4795 6.0801 11.7003 6.0801 11.9726C6.0801 12.245 6.29948 12.4658 6.5701 12.4658C6.84072 12.4658 7.0601 12.245 7.0601 11.9726C7.0601 11.7003 6.84072 11.4795 6.5701 11.4795Z" fill="black" fill-opacity="0.7"/>
<path d="M7.5501 11.9726C7.5501 12.1029 7.525 12.2273 7.4794 12.3412C7.59543 12.4677 7.72074 12.5854 7.85424 12.6933C7.97262 12.4801 8.0401 12.2343 8.0401 11.9726C8.0401 11.1672 7.40068 10.5121 6.60489 10.4935C6.62939 10.6658 6.66654 10.834 6.71534 10.9971C7.1877 11.0677 7.5501 11.4776 7.5501 11.9726Z" fill="black" fill-opacity="0.7"/>
<path d="M8.65352 12.0603L8.28413 12.9898C8.56468 13.1532 8.87038 13.2778 9.19395 13.3563L9.56337 12.4268C9.23219 12.3668 8.92412 12.2398 8.65352 12.0603Z" fill="black" fill-opacity="0.7"/>
<path d="M13.3953 10.4935C12.5995 10.5121 11.9601 11.1672 11.9601 11.9726C11.9601 12.2343 12.0276 12.4801 12.146 12.6933C12.2795 12.5854 12.4048 12.4677 12.5208 12.3412C12.4752 12.2273 12.4501 12.1029 12.4501 11.9726C12.4501 11.4776 12.8125 11.0677 13.2849 10.9971C13.3337 10.834 13.3708 10.6658 13.3953 10.4935Z" fill="black" fill-opacity="0.7"/>
<path d="M12.4501 11.9726C12.4501 12.1029 12.4752 12.2273 12.5208 12.3412C12.8687 11.962 13.1331 11.5041 13.2849 10.9971C12.8125 11.0677 12.4501 11.4776 12.4501 11.9726Z" fill="black" fill-opacity="0.7"/>
<path d="M12.146 7.30659C12.0276 7.51984 11.9601 7.76561 11.9601 8.02724C11.9601 8.83266 12.5995 9.48776 13.3953 9.50636C13.3708 9.33409 13.3337 9.16592 13.2849 9.00284C12.8125 8.9322 12.4501 8.52232 12.4501 8.02724C12.4501 7.89695 12.4752 7.77256 12.5208 7.6587C12.4048 7.53221 12.2795 7.41448 12.146 7.30659Z" fill="black" fill-opacity="0.7"/>
<path d="M12.4501 8.02724C12.4501 8.52232 12.8125 8.9322 13.2849 9.00284C13.1331 8.49579 12.8687 8.03791 12.5208 7.6587C12.4752 7.77256 12.4501 7.89695 12.4501 8.02724Z" fill="black" fill-opacity="0.7"/>
<path fill-rule="evenodd" clip-rule="evenodd" d="M11.4701 6.05454C11.4701 6.32373 11.3987 6.57613 11.2738 6.79359C11.1176 6.73068 10.9558 6.67899 10.7892 6.63952C10.5359 6.57948 10.2717 6.54772 10.0001 6.54772C9.72853 6.54772 9.46433 6.57948 9.21097 6.63952C9.04442 6.67899 8.88255 6.73068 8.72635 6.79359C8.60153 6.57613 8.5301 6.32373 8.5301 6.05454C8.5301 5.23742 9.18824 4.57501 10.0001 4.57501C10.812 4.57501 11.4701 5.23742 11.4701 6.05454ZM12.146 7.30659C11.884 7.09493 11.5906 6.92118 11.2738 6.79359C11.0198 7.23622 10.5445 7.53407 10.0001 7.53407C11.3532 7.53407 12.4501 8.63808 12.4501 9.99995C12.4501 10.8612 12.0114 11.6193 11.3467 12.0603L10.4551 9.81679C10.3806 9.62955 10.2005 9.50677 10.0001 9.50677C9.79973 9.50677 9.61956 9.62955 9.54514 9.81679L8.65352 12.0603C8.92412 12.2398 9.23219 12.3668 9.56337 12.4268L9.19395 13.3563C8.87038 13.2778 8.56468 13.1532 8.28413 12.9898L7.58514 14.7485C7.48464 15.0014 7.60685 15.2885 7.85812 15.3896C8.10938 15.4908 8.39455 15.3678 8.49505 15.1149L9.19395 13.3563C9.45249 13.419 9.72244 13.4522 10.0001 13.4522C10.2778 13.4522 10.5477 13.419 10.8062 13.3563L11.5051 15.1149C11.6056 15.3678 11.8908 15.4908 12.1421 15.3896C12.3933 15.2885 12.5156 15.0014 12.4151 14.7485L11.7161 12.9898C11.867 12.9018 12.0107 12.8026 12.146 12.6933C12.3973 13.1461 12.8782 13.4522 13.4301 13.4522C14.242 13.4522 14.9001 12.7898 14.9001 11.9726C14.9001 11.1555 14.242 10.4931 13.4301 10.4931C13.4185 10.4931 13.4069 10.4933 13.3953 10.4935C13.4182 10.3323 13.4301 10.1675 13.4301 9.99995C13.4301 9.83236 13.4182 9.66757 13.3953 9.50636C13.4069 9.50663 13.4185 9.50677 13.4301 9.50677C14.242 9.50677 14.9001 8.84436 14.9001 8.02724C14.9001 7.21012 14.242 6.54772 13.4301 6.54772C12.8782 6.54772 12.3973 6.85384 12.146 7.30659ZM12.146 7.30659C12.2795 7.41448 12.4048 7.53221 12.5208 7.6587C12.8687 8.03791 13.1331 8.49579 13.2849 9.00284C13.3337 9.16592 13.3708 9.33409 13.3953 9.50636C12.5995 9.48776 11.9601 8.83266 11.9601 8.02724C11.9601 7.76561 12.0276 7.51984 12.146 7.30659ZM13.3953 10.4935C13.3708 10.6658 13.3337 10.834 13.2849 10.9971C13.1331 11.5041 12.8687 11.962 12.5208 12.3412C12.4048 12.4677 12.2795 12.5854 12.146 12.6933C12.0276 12.4801 11.9601 12.2343 11.9601 11.9726C11.9601 11.1672 12.5995 10.5121 13.3953 10.4935ZM9.56337 12.4268C9.70509 12.4524 9.85104 12.4658 10.0001 12.4658C10.1492 12.4658 10.2951 12.4524 10.4368 12.4268L10.0001 11.3279L9.56337 12.4268ZM5.1001 8.02724C5.1001 7.21012 5.75824 6.54772 6.5701 6.54772C7.12201 6.54772 7.60288 6.85384 7.85424 7.30659C7.97262 7.51984 8.0401 7.76561 8.0401 8.02724C8.0401 8.83266 7.40068 9.48776 6.60489 9.50636C6.59333 9.50663 6.58173 9.50677 6.5701 9.50677C5.75824 9.50677 5.1001 8.84436 5.1001 8.02724ZM6.71534 10.9971C6.66654 10.834 6.62939 10.6658 6.60489 10.4935C6.59333 10.4933 6.58173 10.4931 6.5701 10.4931C5.75824 10.4931 5.1001 11.1555 5.1001 11.9726C5.1001 12.7898 5.75824 13.4522 6.5701 13.4522C7.12201 13.4522 7.60288 13.1461 7.85424 12.6933C7.72074 12.5854 7.59543 12.4677 7.4794 12.3412C7.33435 12.7034 6.98188 12.959 6.5701 12.959C6.02886 12.959 5.5901 12.5174 5.5901 11.9726C5.5901 11.4279 6.02886 10.9863 6.5701 10.9863C6.61945 10.9863 6.66795 10.99 6.71534 10.9971ZM7.4794 7.65869C7.33435 7.29651 6.98188 7.04089 6.5701 7.04089C6.02886 7.04089 5.5901 7.4825 5.5901 8.02724C5.5901 8.57199 6.02886 9.01359 6.5701 9.01359C6.61945 9.01359 6.66795 9.00992 6.71534 9.00284C7.1877 8.93221 7.5501 8.52232 7.5501 8.02724C7.5501 7.89695 7.525 7.77256 7.4794 7.65869ZM6.5701 7.53407C6.29948 7.53407 6.0801 7.75487 6.0801 8.02724C6.0801 8.29962 6.29948 8.52042 6.5701 8.52042C6.84072 8.52042 7.0601 8.29962 7.0601 8.02724C7.0601 7.75487 6.84072 7.53407 6.5701 7.53407ZM6.0801 11.9726C6.0801 11.7003 6.29948 11.4795 6.5701 11.4795C6.84072 11.4795 7.0601 11.7003 7.0601 11.9726C7.0601 12.245 6.84072 12.4658 6.5701 12.4658C6.29948 12.4658 6.0801 12.245 6.0801 11.9726Z" fill="black" fill-opacity="0.7"/>
<path d="M8.72635 6.79359C8.98042 7.23622 9.4557 7.53407 10.0001 7.53407C10.5445 7.53407 11.0198 7.23622 11.2738 6.79359C11.1176 6.73068 10.9558 6.67899 10.7892 6.63952C10.6108 6.88298 10.3238 7.04089 10.0001 7.04089C9.67644 7.04089 9.38943 6.88298 9.21097 6.63952C9.04442 6.67899 8.88255 6.73068 8.72635 6.79359Z" fill="black" fill-opacity="0.7"/>
<path d="M9.21097 6.63952C9.38943 6.88298 9.67644 7.04089 10.0001 7.04089C10.3238 7.04089 10.6108 6.88298 10.7892 6.63952C10.5359 6.57948 10.2717 6.54772 10.0001 6.54772C9.72853 6.54772 9.46433 6.57948 9.21097 6.63952Z" fill="black" fill-opacity="0.7"/>
</svg>
