<svg width="20" height="21" viewBox="0 0 20 21" fill="none" xmlns="http://www.w3.org/2000/svg">
<rect y="0.5" width="20" height="20" rx="10" fill="#62B944"/>
<path d="M6.32505 15.7V14.66H9.47505V12.58H8.42505C7.6988 12.58 7.07965 12.3265 6.5676 11.8193C6.05555 11.3121 5.7997 10.699 5.80005 9.98005C5.80005 9.46005 5.94442 8.98113 6.23317 8.54329C6.52192 8.10545 6.9113 7.78704 7.4013 7.58805C7.48005 6.93805 7.7667 6.39413 8.26125 5.95629C8.7558 5.51845 9.3354 5.2997 10 5.30005C10.665 5.30005 11.2448 5.51897 11.7394 5.95681C12.2339 6.39465 12.5204 6.9384 12.5988 7.58805C13.0888 7.78738 13.4782 8.10597 13.7669 8.54381C14.0557 8.98165 14.2 9.4604 14.2 9.98005C14.2 10.6994 13.944 11.3126 13.432 11.8198C12.9199 12.327 12.3009 12.5804 11.575 12.58H10.525V14.66H13.675V15.7H6.32505Z" fill="black" fill-opacity="0.7"/>
</svg>
