<svg width="20" height="21" viewBox="0 0 20 21" fill="none" xmlns="http://www.w3.org/2000/svg">
<rect y="0.5" width="20" height="20" rx="10" fill="#A478B9"/>
<path d="M9.9999 12.05C10.8836 12.05 11.5999 11.356 11.5999 10.5C11.5999 9.64391 10.8836 8.94995 9.9999 8.94995C9.11625 8.94995 8.3999 9.64391 8.3999 10.5C8.3999 11.356 9.11625 12.05 9.9999 12.05Z" fill="black" fill-opacity="0.7"/>
<path d="M8.5301 5.55005L7.6334 6.53894H6.0801C5.5411 6.53894 5.1001 6.98394 5.1001 7.52783V13.4612C5.1001 14.005 5.5411 14.45 6.0801 14.45H13.9201C14.4591 14.45 14.9001 14.005 14.9001 13.4612V7.52783C14.9001 6.98394 14.4591 6.53894 13.9201 6.53894H12.3668L11.4701 5.55005H8.5301ZM10.0001 12.9667C8.6477 12.9667 7.5501 11.8592 7.5501 10.4945C7.5501 9.12983 8.6477 8.02227 10.0001 8.02227C11.3525 8.02227 12.4501 9.12983 12.4501 10.4945C12.4501 11.8592 11.3525 12.9667 10.0001 12.9667Z" fill="black" fill-opacity="0.7"/>
</svg>
