<svg width="20" height="20" viewBox="0 0 20 20" fill="none" xmlns="http://www.w3.org/2000/svg">
<rect width="20" height="20" rx="10" fill="#44ABB9"/>
<path fill-rule="evenodd" clip-rule="evenodd" d="M11.1095 10.2493C11.5479 9.81177 12.1425 9.56598 12.7624 9.56598C13.0694 9.56598 13.3733 9.62632 13.6569 9.74357C13.9405 9.86081 14.1982 10.0327 14.4153 10.2493C14.6323 10.4659 14.8045 10.7231 14.922 11.0062C15.0394 11.2892 15.0999 11.5926 15.0999 11.899C15.0999 12.2053 15.0394 12.5087 14.922 12.7918C14.8045 13.0748 14.6323 13.332 14.4153 13.5486C14.1982 13.7653 13.9405 13.9371 13.6569 14.0543C13.3733 14.1716 13.0694 14.2319 12.7624 14.2319C12.1425 14.2319 11.5479 13.9861 11.1095 13.5486C10.6712 13.1111 10.4249 12.5177 10.4249 11.899C10.4249 11.2802 10.6712 10.6868 11.1095 10.2493ZM12.7624 10.4143C12.3679 10.4143 11.9895 10.5708 11.7106 10.8492C11.4316 11.1276 11.2749 11.5052 11.2749 11.899C11.2749 12.2927 11.4316 12.6703 11.7106 12.9487C11.9895 13.2272 12.3679 13.3836 12.7624 13.3836C12.9577 13.3836 13.1512 13.3452 13.3316 13.2706C13.5121 13.196 13.6761 13.0866 13.8142 12.9487C13.9524 12.8109 14.0619 12.6472 14.1367 12.4671C14.2114 12.287 14.2499 12.0939 14.2499 11.899C14.2499 11.704 14.2114 11.5109 14.1367 11.3308C14.0619 11.1507 13.9524 10.987 13.8142 10.8492C13.6761 10.7113 13.5121 10.602 13.3316 10.5273C13.1512 10.4527 12.9577 10.4143 12.7624 10.4143ZM5.55342 10.4303C5.97186 10.0127 6.53939 9.77807 7.13115 9.77807C7.72292 9.77807 8.29044 10.0127 8.70888 10.4303C9.12733 10.848 9.3624 11.4144 9.3624 12.005C9.3624 12.5956 9.12733 13.1621 8.70888 13.5797C8.29044 13.9973 7.72292 14.2319 7.13115 14.2319C6.53939 14.2319 5.97186 13.9973 5.55342 13.5797C5.13498 13.1621 4.8999 12.5956 4.8999 12.005C4.8999 11.4144 5.13498 10.848 5.55342 10.4303ZM7.13115 10.6264C6.76482 10.6264 6.4135 10.7717 6.15446 11.0302C5.89543 11.2887 5.7499 11.6394 5.7499 12.005C5.7499 12.3706 5.89543 12.7213 6.15446 12.9798C6.4135 13.2383 6.76482 13.3836 7.13115 13.3836C7.49748 13.3836 7.84881 13.2383 8.10784 12.9798C8.36688 12.7213 8.5124 12.3706 8.5124 12.005C8.5124 11.6394 8.36688 11.2887 8.10784 11.0302C7.84881 10.7717 7.49748 10.6264 7.13115 10.6264Z" fill="black" fill-opacity="0.7"/>
<path fill-rule="evenodd" clip-rule="evenodd" d="M8.48071 6.19513C8.48071 5.95929 8.67059 5.7681 8.90482 5.7681H10.8133C10.9958 5.7681 11.1579 5.8857 11.2156 6.06005L13.1248 11.825C13.1989 12.0488 13.0788 12.2906 12.8566 12.3652C12.6344 12.4398 12.3942 12.3189 12.3201 12.0952L10.5077 6.62217H8.90482C8.67059 6.62217 8.48071 6.43098 8.48071 6.19513Z" fill="black" fill-opacity="0.7"/>
<path fill-rule="evenodd" clip-rule="evenodd" d="M13.9556 6.66265C14.1745 6.74414 14.2865 6.98911 14.2057 7.20982L13.8156 8.27481C13.7543 8.44214 13.5961 8.55326 13.4191 8.55326H12.0486C12.0358 8.66147 11.982 8.76476 11.8904 8.8375L7.53214 12.2959C7.34875 12.4415 7.08304 12.4096 6.93867 12.2247C6.79429 12.0399 6.82592 11.772 7.00931 11.6265L8.35272 10.5604L7.79195 8.76072H6.62476C6.39136 8.76072 6.20215 8.57 6.20215 8.33473C6.20215 8.09946 6.39136 7.90873 6.62476 7.90873H8.10391C8.30656 7.90873 8.47589 8.0525 8.517 8.24436L9.06303 9.99679L11.2325 8.27521C11.2156 8.22912 11.2063 8.17928 11.2063 8.12727C11.2063 7.892 11.3955 7.70127 11.6289 7.70127H13.1247L13.4127 6.91474C13.4936 6.69403 13.7366 6.58117 13.9556 6.66265Z" fill="black" fill-opacity="0.7"/>
</svg>
