<svg width="20" height="20" viewBox="0 0 20 20" fill="none" xmlns="http://www.w3.org/2000/svg">
<rect width="20" height="20" rx="10" fill="#4496B9"/>
<path d="M9.04 15.1V13.08C9.04 12.8121 9.14641 12.5552 9.33582 12.3658C9.52523 12.1764 9.78213 12.07 10.05 12.07C10.3179 12.07 10.5748 12.1764 10.7642 12.3658C10.9536 12.5552 11.06 12.8121 11.06 13.08V15.1H13.08V10.05C13.08 9.96286 13.0574 9.87721 13.0145 9.80137C12.9716 9.72553 12.9098 9.66209 12.8351 9.61721L10.555 8.24917V7.02H11.565V6.01H10.555V5H9.545V6.01H8.535V7.02H9.545V8.24917L7.26493 9.61721C7.19023 9.66209 7.12842 9.72553 7.0855 9.80137C7.04258 9.87721 7.02002 9.96286 7.02 10.05V15.1H9.04ZM6.515 15.1V11.0004L5.27927 11.6185C5.19532 11.6603 5.12471 11.7248 5.07537 11.8045C5.02604 11.8843 4.99993 11.9762 5 12.07V15.1C5.505 15.1 6.01 15.1 6.515 15.1ZM14.8207 11.618L13.585 11.0004V15.1C14.0284 15.1 15.1 15.1 15.1 15.1V12.07C15.1 11.8786 14.9919 11.7039 14.8207 11.618Z" fill="black" fill-opacity="0.7"/>
</svg>
