<svg width="20" height="20" viewBox="0 0 20 20" fill="none" xmlns="http://www.w3.org/2000/svg">
<rect width="20" height="20" rx="10" fill="#4496B9"/>
<path d="M5.30005 14.9V13.1864C5.30005 11.9349 6.03671 10.8007 7.18005 10.2918V10.2918V10.2918C7.18005 9.35982 7.706 8.50765 8.53907 8.08985L9.53005 7.59286V6.88571H8.59005V5.94286H9.53005V5H10.47V5.94286H11.41V6.88571H10.47V7.59286L11.461 8.08985C12.2941 8.50765 12.82 9.35982 12.82 10.2918V10.2918V10.2918C13.9634 10.8007 14.7 11.9349 14.7 13.1864V14.9H10.94V13.4857C10.94 13.2264 10.8479 13.0044 10.6637 12.8196C10.4794 12.6348 10.2582 12.5425 10 12.5429C9.74155 12.5429 9.52018 12.6353 9.33594 12.8201C9.1517 13.0049 9.05974 13.2267 9.06005 13.4857V14.9H5.30005ZM10 10.8929C10.1959 10.8929 10.3624 10.824 10.4997 10.6864C10.6369 10.5487 10.7054 10.3818 10.705 10.1857C10.705 9.98929 10.6364 9.82224 10.4992 9.68459C10.3619 9.54693 10.1956 9.47826 10 9.47857C9.80422 9.47857 9.63768 9.5474 9.50044 9.68506C9.3632 9.82271 9.29474 9.9896 9.29505 10.1857C9.29505 10.3821 9.36367 10.5492 9.50091 10.6868C9.63815 10.8245 9.80453 10.8932 10 10.8929Z" fill="black" fill-opacity="0.7"/>
</svg>
