<svg width="20" height="20" viewBox="0 0 20 20" fill="none" xmlns="http://www.w3.org/2000/svg">
<rect width="20" height="20" rx="10" fill="#44ABB9"/>
<path d="M14.7313 9.34244H14.7419C14.9233 9.34244 15.0871 9.41604 15.2041 9.53487C15.3251 9.65025 15.4 9.81124 15.4 9.98948V10.0002V10.0102C15.4 10.1884 15.3251 10.3494 15.2041 10.4644C15.0867 10.5832 14.9229 10.6568 14.7415 10.6568H14.7305H14.6525L14.0514 14.0565C14.0259 14.2093 13.9445 14.3477 13.8224 14.4455L13.8212 14.4463C13.7081 14.5418 13.5599 14.6 13.398 14.6H6.70115C6.53926 14.6 6.39103 14.5418 6.27712 14.4455L6.2779 14.4463C6.1562 14.3492 6.07467 14.2118 6.04852 14.0599L6.04813 14.0561L5.44699 10.6565H5.35805C5.17665 10.6565 5.01281 10.5829 4.89578 10.464C4.83373 10.4051 4.78442 10.3344 4.75077 10.2563C4.71712 10.1782 4.69984 10.0942 4.69995 10.0094V9.98872C4.69995 9.81047 4.77485 9.64948 4.89578 9.53449C5.0132 9.41566 5.17704 9.34206 5.35844 9.34206H5.36936H5.36897L14.7313 9.34244ZM7.23247 13.4493C7.27624 13.4464 7.31893 13.4347 7.35791 13.4149C7.39689 13.3951 7.43134 13.3677 7.45912 13.3343L7.45951 13.3339C7.48914 13.3016 7.51165 13.2636 7.52561 13.2223C7.53958 13.181 7.54469 13.1373 7.54065 13.094V13.0951L7.37329 10.9593C7.37031 10.9163 7.35838 10.8743 7.33825 10.836C7.31813 10.7977 7.29022 10.7639 7.25626 10.7366L7.25587 10.7362C7.22297 10.7071 7.18428 10.6849 7.14226 10.6712C7.10023 10.6575 7.05577 10.6525 7.01167 10.6565H7.01284C6.96907 10.6594 6.92638 10.6711 6.8874 10.6909C6.84842 10.7107 6.81397 10.7381 6.7862 10.7715L6.78581 10.7718C6.75617 10.8042 6.73366 10.8422 6.7197 10.8835C6.70574 10.9248 6.70062 10.9685 6.70467 11.0118V11.0106L6.87202 13.1465C6.87758 13.2293 6.91596 13.3066 6.9789 13.3619L6.97929 13.3623C7.03952 13.4185 7.1194 13.4497 7.20243 13.4497H7.20672H7.20633L7.23247 13.4493ZM9.37996 13.1212V10.9823C9.38008 10.9397 9.37136 10.8975 9.35432 10.8584C9.33729 10.8192 9.31229 10.7839 9.28087 10.7546C9.25093 10.7237 9.21491 10.6992 9.175 10.6825C9.1351 10.6657 9.09215 10.6571 9.04877 10.6572H9.04252C8.99919 10.6571 8.95629 10.6657 8.91644 10.6824C8.8766 10.6992 8.84065 10.7237 8.8108 10.7546C8.77941 10.784 8.75444 10.8194 8.7374 10.8586C8.72037 10.8978 8.71163 10.94 8.71172 10.9827V13.1246C8.71172 13.2143 8.74956 13.2952 8.8108 13.3523C8.84075 13.3832 8.87677 13.4077 8.91667 13.4245C8.95658 13.4412 8.99953 13.4498 9.04291 13.4497H9.04915C9.09249 13.4498 9.13539 13.4412 9.17524 13.4245C9.21508 13.4078 9.25103 13.3832 9.28087 13.3523C9.31269 13.3229 9.33804 13.2874 9.35535 13.248C9.37266 13.2085 9.38157 13.166 9.38152 13.1231V13.1208L9.37996 13.1212ZM11.3862 13.1212V10.9823C11.3864 10.9397 11.3776 10.8975 11.3606 10.8584C11.3436 10.8192 11.3186 10.7839 11.2871 10.7546C11.2572 10.7237 11.2212 10.6992 11.1813 10.6825C11.1414 10.6657 11.0984 10.6571 11.055 10.6572H11.0488C11.0055 10.6571 10.9626 10.6657 10.9227 10.6824C10.8829 10.6992 10.8469 10.7237 10.8171 10.7546C10.7857 10.784 10.7607 10.8194 10.7437 10.8586C10.7266 10.8978 10.7179 10.94 10.718 10.9827V13.1246C10.718 13.2143 10.7558 13.2952 10.8171 13.3523C10.847 13.3832 10.883 13.4077 10.9229 13.4245C10.9629 13.4412 11.0058 13.4498 11.0492 13.4497H11.0554C11.0988 13.4498 11.1417 13.4412 11.1815 13.4245C11.2214 13.4078 11.2573 13.3832 11.2871 13.3523C11.319 13.3229 11.3443 13.2874 11.3616 13.248C11.3789 13.2085 11.3878 13.166 11.3878 13.1231V13.1208L11.3862 13.1212ZM13.2252 13.1465L13.3925 11.0106C13.3963 10.9674 13.391 10.9239 13.3771 10.8828C13.3631 10.8417 13.3408 10.8038 13.3114 10.7715L13.3118 10.7718C13.284 10.7384 13.2497 10.7109 13.2108 10.691C13.1719 10.6711 13.1292 10.6592 13.0855 10.6561H13.0843C13.0404 10.6524 12.9961 10.6575 12.9542 10.6712C12.9124 10.6849 12.8738 10.7069 12.8409 10.7358L12.8413 10.7354C12.8073 10.7626 12.7793 10.7964 12.7591 10.8346C12.7388 10.8729 12.7267 10.9148 12.7235 10.9577V10.9589L12.5561 13.0947C12.5524 13.1379 12.5576 13.1814 12.5716 13.2226C12.5855 13.2637 12.6079 13.3016 12.6373 13.3339L12.6369 13.3335C12.6646 13.367 12.699 13.3945 12.7379 13.4144C12.7768 13.4343 12.8194 13.4462 12.8631 13.4493H12.8944C12.9775 13.4493 13.0575 13.418 13.1179 13.3619C13.1816 13.3067 13.2207 13.229 13.2267 13.1457V13.1446L13.2252 13.1465ZM7.18722 6.89841L6.70154 9.01356H6.01185L6.53926 6.74969C6.60285 6.44878 6.76942 6.19387 7.00036 6.01563L7.00309 6.01372C7.2355 5.82853 7.52581 5.7278 7.82503 5.72853H7.83985H7.83907H8.71133V5.72546C8.71133 5.63576 8.74917 5.55489 8.81042 5.49777C8.84039 5.46682 8.87646 5.4422 8.91643 5.42539C8.9564 5.40859 8.99944 5.39996 9.04291 5.40002H11.0566C11.1479 5.40002 11.2302 5.43721 11.2883 5.49739C11.3197 5.52681 11.3447 5.56221 11.3617 5.60142C11.3788 5.64063 11.3875 5.68283 11.3874 5.72546V5.72853H12.2741C12.5866 5.72853 12.8733 5.83586 13.098 6.01525L13.0956 6.01333C13.3323 6.1948 13.496 6.45263 13.5579 6.74125L13.5595 6.7493L14.0869 9.01317H13.3972L12.9115 6.89803C12.8762 6.75288 12.7931 6.62325 12.6751 6.52928L12.6739 6.52813C12.5591 6.43496 12.4148 6.38412 12.2659 6.38438H11.3862V6.38745C11.3864 6.43003 11.3776 6.47219 11.3606 6.51134C11.3436 6.55049 11.3186 6.58581 11.2871 6.61514C11.2572 6.64599 11.2212 6.67053 11.1813 6.68727C11.1414 6.704 11.0984 6.71259 11.055 6.7125H9.04291C8.99958 6.71263 8.95668 6.70406 8.91683 6.68731C8.87699 6.67057 8.84104 6.64601 8.8112 6.61514C8.7798 6.58571 8.75483 6.55032 8.73779 6.51111C8.72076 6.4719 8.71202 6.4297 8.71211 6.38707V6.384H7.83244C7.68318 6.38384 7.53856 6.43495 7.42362 6.52851L7.42479 6.52774C7.30765 6.62096 7.22499 6.74947 7.18956 6.89343L7.18878 6.89803L7.18722 6.89841Z" fill="black" fill-opacity="0.7"/>
</svg>
