<svg width="20" height="20" viewBox="0 0 20 20" fill="none" xmlns="http://www.w3.org/2000/svg">
<rect width="20" height="20" rx="10" fill="#44ABB9"/>
<path d="M5.94708 5.91129C5.85786 6.08777 5.81399 6.30641 5.72625 6.7427L5.43148 8.20846C5.3897 8.40832 5.38938 8.61454 5.43053 8.81452C5.47167 9.0145 5.55343 9.20402 5.67079 9.37149C5.78814 9.53895 5.93863 9.68084 6.11304 9.78845C6.28745 9.89607 6.4821 9.96715 6.68509 9.99735C6.88808 10.0276 7.09514 10.0162 7.29358 9.96409C7.49202 9.91194 7.67767 9.82007 7.83916 9.69409C8.00066 9.56811 8.1346 9.41068 8.23279 9.23143C8.33099 9.05218 8.39136 8.85488 8.41022 8.65162L8.44472 8.31337C8.42566 8.52869 8.45201 8.74559 8.52209 8.9502C8.59218 9.1548 8.70445 9.3426 8.85172 9.50156C8.99899 9.66053 9.17801 9.78716 9.37733 9.87335C9.57665 9.95953 9.79187 10.0034 10.0092 10.0021C10.2265 10.0008 10.4412 9.95435 10.6395 9.86578C10.8377 9.77721 11.0152 9.64845 11.1605 9.48773C11.3059 9.32701 11.4159 9.13788 11.4835 8.93245C11.5511 8.72702 11.5748 8.50982 11.5531 8.29474L11.5896 8.65162C11.6084 8.85488 11.6688 9.05218 11.767 9.23143C11.8652 9.41068 11.9991 9.56811 12.1606 9.69409C12.3221 9.82007 12.5078 9.91194 12.7062 9.96409C12.9047 10.0162 13.1117 10.0276 13.3147 9.99735C13.5177 9.96715 13.7124 9.89607 13.8868 9.78845C14.0612 9.68084 14.2117 9.53895 14.329 9.37149C14.4464 9.20402 14.5281 9.0145 14.5693 8.81452C14.6104 8.61454 14.6101 8.40832 14.5683 8.20846L14.2736 6.7427C14.1858 6.30641 14.1419 6.08826 14.0527 5.91129C13.9598 5.72699 13.8289 5.56418 13.6685 5.43345C13.5082 5.30271 13.322 5.20697 13.1221 5.15243C12.9298 5.09998 12.7061 5.09998 12.2585 5.09998H7.74132C7.29375 5.09998 7.06996 5.09998 6.87772 5.15243C6.67777 5.20697 6.49159 5.30271 6.33126 5.43345C6.17093 5.56418 6.04004 5.72699 5.94708 5.91129ZM13.0896 10.7375C13.4749 10.7386 13.8539 10.6404 14.1898 10.4527V10.9826C14.1898 12.8312 14.1898 13.7558 13.6121 14.3298C13.1472 14.7926 12.4547 14.8823 11.2322 14.9V13.1886C11.2322 12.7303 11.2322 12.5013 11.1331 12.3307C11.0682 12.219 10.9749 12.1261 10.8625 12.0616C10.691 11.9631 10.4608 11.9631 9.9999 11.9631C9.53902 11.9631 9.30882 11.9631 9.13728 12.0616C9.02489 12.1261 8.93156 12.219 8.86667 12.3307C8.76759 12.5013 8.76759 12.7303 8.76759 13.1886V14.9C7.54514 14.8823 6.85258 14.7921 6.38775 14.3298C5.81004 13.7558 5.81004 12.8312 5.81004 10.9826V10.4527C6.14593 10.6404 6.52495 10.7386 6.91025 10.7375C7.4799 10.7379 8.02836 10.5227 8.44423 10.1355C8.86809 10.5238 9.42363 10.7388 9.9999 10.7375C10.576 10.7386 11.1313 10.5237 11.5551 10.1355C11.9713 10.523 12.5204 10.7383 13.0905 10.7375H13.0896Z" fill="black" fill-opacity="0.7"/>
</svg>
