<svg width="20" height="20" viewBox="0 0 20 20" fill="none" xmlns="http://www.w3.org/2000/svg">
<rect width="20" height="20" rx="10" fill="#44ABB9"/>
<path d="M12.106 5.20355H7.89398C7.33445 5.20355 7.05492 5.20355 6.8298 5.34262C6.60515 5.48122 6.48004 5.73146 6.22981 6.23192L5.57725 7.88261C5.42609 8.264 5.29446 8.7133 5.54842 9.03562C5.6681 9.18754 5.83217 9.29837 6.01778 9.3527C6.20339 9.40704 6.40132 9.40217 6.58403 9.33877C6.76674 9.27538 6.92516 9.15661 7.03723 8.99899C7.1493 8.84137 7.20946 8.65275 7.20934 8.45935C7.20934 8.70606 7.30734 8.94266 7.48179 9.11712C7.65624 9.29157 7.89285 9.38957 8.13956 9.38957C8.38627 9.38957 8.62288 9.29157 8.79733 9.11712C8.97178 8.94266 9.06979 8.70606 9.06979 8.45935C9.06979 8.70606 9.1678 8.94266 9.34225 9.11712C9.5167 9.29157 9.7533 9.38957 10 9.38957C10.2467 9.38957 10.4833 9.29157 10.6578 9.11712C10.8322 8.94266 10.9302 8.70606 10.9302 8.45935C10.9302 8.70606 11.0282 8.94266 11.2027 9.11712C11.3772 9.29157 11.6138 9.38957 11.8605 9.38957C12.1072 9.38957 12.3438 9.29157 12.5182 9.11712C12.6927 8.94266 12.7907 8.70606 12.7907 8.45935C12.7907 8.65271 12.8509 8.84127 12.963 8.99881C13.0751 9.15635 13.2335 9.27505 13.4162 9.33838C13.5989 9.40172 13.7968 9.40655 13.9824 9.3522C14.1679 9.29786 14.332 9.18704 14.4516 9.03516C14.7056 8.71283 14.5735 8.26353 14.4228 7.88214L13.7698 6.23192C13.5195 5.73146 13.3949 5.48122 13.1698 5.34262C12.9451 5.20355 12.6651 5.20355 12.106 5.20355Z" fill="black" fill-opacity="0.7"/>
<path fill-rule="evenodd" clip-rule="evenodd" d="M13.7209 14.157H14.6511C14.7436 14.157 14.8323 14.1937 14.8978 14.2591C14.9632 14.3246 14.9999 14.4133 14.9999 14.5058C14.9999 14.5983 14.9632 14.687 14.8978 14.7525C14.8323 14.8179 14.7436 14.8546 14.6511 14.8546H5.34883C5.25632 14.8546 5.16759 14.8179 5.10217 14.7525C5.03675 14.687 5 14.5983 5 14.5058C5 14.4133 5.03675 14.3246 5.10217 14.2591C5.16759 14.1937 5.25632 14.157 5.34883 14.157H6.27906V10.0872C6.62511 10.0872 6.94557 9.97931 7.20929 9.79559C7.48208 9.98598 7.80686 10.0878 8.13951 10.0872C8.48556 10.0872 8.80602 9.97931 9.06974 9.79559C9.34253 9.98598 9.66731 10.0878 9.99997 10.0872C10.346 10.0872 10.6665 9.97931 10.9302 9.79559C11.203 9.98598 11.5278 10.0878 11.8604 10.0872C12.2065 10.0872 12.5269 9.97931 12.7906 9.79559C13.0634 9.98598 13.3882 10.0878 13.7209 10.0872V14.157ZM8.83718 14.157H11.1628V12.8779C11.1628 12.443 11.1628 12.2258 11.0693 12.064C11.0081 11.9577 10.92 11.8695 10.8139 11.8081C10.6521 11.7151 10.4348 11.7151 9.99997 11.7151C9.56509 11.7151 9.34788 11.7151 9.18602 11.8081C9.07991 11.8695 8.99184 11.9577 8.93067 12.064C8.83718 12.2258 8.83718 12.443 8.83718 12.8779V14.157Z" fill="black" fill-opacity="0.7"/>
</svg>
