<svg width="20" height="20" viewBox="0 0 20 20" fill="none" xmlns="http://www.w3.org/2000/svg">
<rect width="20" height="20" rx="10" fill="#B9B678"/>
<path d="M4.8999 10C4.8999 8.64742 5.43722 7.35022 6.39366 6.39378C7.35009 5.43734 8.6473 4.90002 9.9999 4.90002C11.3525 4.90002 12.6497 5.43734 13.6061 6.39378C14.5626 7.35022 15.0999 8.64742 15.0999 10C15.0999 11.3526 14.5626 12.6498 13.6061 13.6063C12.6497 14.5627 11.3525 15.1 9.9999 15.1C8.6473 15.1 7.35009 14.5627 6.39366 13.6063C5.43722 12.6498 4.8999 11.3526 4.8999 10ZM8.15056 6.10049C7.57816 6.3727 7.07248 6.76722 6.66921 7.25622L7.17686 8.90706L7.96618 9.1699L9.60759 7.92236V7.07184L8.15056 6.10049ZM5.71276 10.4975C5.79123 11.1762 6.02661 11.8078 6.38204 12.3531H7.87595L8.37418 11.8549L7.72844 9.91685L6.92499 9.6493L5.71276 10.4975ZM9.12584 14.226C9.7025 14.3447 10.2973 14.3447 10.874 14.226L11.4938 12.8325L11.0144 12.3539H8.98539L8.50678 12.8325L9.12584 14.2267V14.226ZM13.617 12.3539C13.9622 11.825 14.1945 11.2162 14.2792 10.561L13.0677 9.65244L12.2714 9.91764L11.6256 11.8556L12.1239 12.3539H13.617ZM13.3204 7.24367C12.9188 6.76011 12.4168 6.36975 11.8492 6.0997L10.3922 7.07184V7.92236L12.0336 9.1699L12.8214 8.90784L13.3204 7.24367Z" fill="black" fill-opacity="0.7"/>
</svg>
