<svg width="20" height="20" viewBox="0 0 20 20" fill="none" xmlns="http://www.w3.org/2000/svg">
<rect width="20" height="20" rx="10" fill="#B9B678"/>
<path d="M12.4554 9.5176H14.8C14.7239 8.76122 14.4692 8.03372 14.057 7.39499C13.6396 7.59461 13.2762 7.89162 12.9974 8.26101C12.7187 8.63041 12.5328 9.06137 12.4554 9.5176ZM7.54447 9.5176C7.46708 9.06137 7.2812 8.63041 7.00247 8.26101C6.72375 7.89162 6.36035 7.59461 5.94287 7.39499C5.53065 8.03372 5.27603 8.76122 5.19995 9.5176H7.54447ZM11.481 9.5176C11.5564 8.915 11.7732 8.33874 12.1135 7.83576C12.4539 7.33278 12.9082 6.91729 13.4395 6.62313C12.6512 5.81669 11.6045 5.31297 10.4824 5.20001V9.5176H11.481ZM8.51895 9.5176H9.51754V5.20001C8.39514 5.31193 7.34809 5.81581 6.56035 6.62313C7.09167 6.91729 7.54601 7.33278 7.88636 7.83576C8.22671 8.33874 8.44345 8.915 8.51895 9.5176ZM11.481 10.4824H10.4824V14.8C11.6048 14.6881 12.6518 14.1842 13.4395 13.3769C12.9082 13.0827 12.4539 12.6672 12.1135 12.1643C11.7732 11.6613 11.5564 11.085 11.481 10.4824ZM5.94287 12.605C6.35935 12.404 6.7219 12.1066 7.00044 11.7375C7.27899 11.3683 7.46549 10.9381 7.54447 10.4824H5.19995C5.27714 11.2591 5.54246 11.9827 5.94287 12.605ZM12.4554 10.4824C12.5328 10.9387 12.7187 11.3696 12.9974 11.739C13.2762 12.1084 13.6396 12.4054 14.057 12.605C14.4692 11.9663 14.7239 11.2388 14.8 10.4824H12.4554ZM8.51895 10.4824C8.44345 11.085 8.22671 11.6613 7.88636 12.1643C7.54601 12.6672 7.09167 13.0827 6.56035 13.3769C7.34873 14.1833 8.39544 14.6871 9.51754 14.8V10.4824H8.51895Z" fill="black" fill-opacity="0.7"/>
</svg>
