<svg width="20" height="20" viewBox="0 0 20 20" fill="none" xmlns="http://www.w3.org/2000/svg">
<rect width="20" height="20" rx="10" fill="#B9B678"/>
<path d="M6.0554 13.7134L5.3999 13.0663L7.2859 11.1711C7.52357 10.9323 7.68656 10.6337 7.77488 10.2754C7.8632 9.91698 7.90721 9.36817 7.9069 8.62893C7.9069 8.18211 8.00657 7.743 8.2059 7.3116C8.40524 6.88019 8.6889 6.4796 9.0569 6.10982C9.75457 5.40879 10.5251 5.01205 11.3684 4.9196C12.2117 4.82716 12.9056 5.06212 13.4499 5.62449C14.0019 6.17915 14.2319 6.88019 14.1399 7.7276C14.0479 8.575 13.6569 9.34537 12.9669 10.0387C12.5989 10.4085 12.2002 10.6935 11.7709 10.8938C11.3416 11.0941 10.9046 11.1943 10.4599 11.1943C9.71624 11.1943 9.1719 11.2366 8.8269 11.3214C8.4819 11.4061 8.18674 11.5717 7.9414 11.8183L6.0554 13.7134ZM9.2179 9.85381C9.57824 10.2082 10.0651 10.3391 10.6784 10.2467C11.2917 10.1543 11.8399 9.86537 12.3229 9.38004C12.8136 8.887 13.1069 8.33418 13.2029 7.72159C13.2989 7.10899 13.1665 6.62951 12.8059 6.28315C12.4379 5.91338 11.9567 5.77471 11.3624 5.86715C10.7681 5.9596 10.2219 6.25234 9.7239 6.74537C9.2409 7.23071 8.94758 7.77967 8.84392 8.39227C8.74027 9.00487 8.86493 9.49205 9.2179 9.85381ZM12.7599 15.1C12.2539 15.1 11.8207 14.919 11.4604 14.5569C11.1001 14.1948 10.9199 13.7596 10.9199 13.2511C10.9199 12.7427 11.1001 12.3074 11.4604 11.9454C11.8207 11.5833 12.2539 11.4023 12.7599 11.4023C13.2659 11.4023 13.6991 11.5833 14.0594 11.9454C14.4197 12.3074 14.5999 12.7427 14.5999 13.2511C14.5999 13.7596 14.4197 14.1948 14.0594 14.5569C13.6991 14.919 13.2659 15.1 12.7599 15.1Z" fill="black" fill-opacity="0.7"/>
</svg>
