<svg width="20" height="20" viewBox="0 0 20 20" fill="none" xmlns="http://www.w3.org/2000/svg">
<rect width="20" height="20" rx="10" fill="#B9B678"/>
<path d="M4.69995 14.2V12.625C4.69995 12.4762 4.75083 12.3515 4.85259 12.2507C4.95435 12.1499 5.08014 12.0996 5.22995 12.1H5.75995V14.2H4.69995ZM6.28995 14.2V12.1H8.40995L8.86045 11.0762L9.70845 12.9137L9.25795 13.9112C9.21378 14.0075 9.14753 14.0798 9.0592 14.1281C8.97087 14.1764 8.87812 14.2003 8.78095 14.2H6.28995ZM14.2399 14.2V12.1H14.7699C14.9201 12.1 15.0461 12.1504 15.1478 12.2512C15.2496 12.352 15.3003 12.4766 15.2999 12.625V14.2H14.2399ZM13.7099 14.2H11.219C11.1218 14.2 11.029 14.1758 10.9407 14.1275C10.8524 14.0792 10.7861 14.0071 10.7419 13.9112L7.00545 5.79999H8.78095L9.99995 8.52999L11.219 5.79999H12.9944L10.848 10.4462L11.59 12.1H13.7099V14.2Z" fill="black" fill-opacity="0.7"/>
</svg>
