<svg width="60" height="60" viewBox="0 0 60 60" fill="none" xmlns="http://www.w3.org/2000/svg">
<g clip-path="url(#clip0_1_4121)">
<path d="M22.8 41.8866C22.3714 42.0696 21.9643 42.0298 21.5786 41.7671C21.1929 41.5045 21 41.121 21 40.6167V20.7456C21 19.9906 21.252 19.344 21.756 18.8058C22.26 18.2677 22.8651 17.9991 23.5714 18H36.4286C37.1357 18 37.7413 18.2691 38.2453 18.8072C38.7493 19.3453 39.0009 19.9915 39 20.7456V40.6167C39 41.1201 38.8071 41.5036 38.4214 41.7671C38.0357 42.0307 37.6286 42.0705 37.2 41.8866L30 38.5919L22.8 41.8866Z" fill="#C75E5E"/>
</g>
<rect x="1.5" y="1.5" width="57" height="57" rx="4.5" stroke="#C4C4C4" stroke-width="3"/>
<defs>
<clipPath id="clip0_1_4121">
<rect width="18" height="24" fill="white" transform="translate(21 18)"/>
</clipPath>
</defs>
</svg>
