<svg width="50" height="50" viewBox="0 0 50 50" fill="none" xmlns="http://www.w3.org/2000/svg">
<rect width="50" height="50" rx="6" fill="#808080"/>
<path d="M19.7801 30.1457C19.5594 29.8849 19.4491 29.5892 19.4491 29.2585C19.4491 28.9279 19.5594 28.6519 19.7801 28.4304L22.007 26.2035H13.3704C13.0293 26.2035 12.7433 26.088 12.5122 25.8569C12.281 25.6258 12.1659 25.3401 12.1667 24.9998C12.1667 24.6588 12.2822 24.3727 12.5134 24.1416C12.7445 23.9105 13.0301 23.7953 13.3704 23.7961H22.007L19.7801 21.5693C19.5394 21.3285 19.419 21.0425 19.419 20.711C19.419 20.3796 19.5394 20.0939 19.7801 19.854C20.0008 19.6133 20.2768 19.4929 20.6083 19.4929C20.9397 19.4929 21.2153 19.6032 21.4352 19.8239L25.7685 24.1572C25.8889 24.2776 25.9744 24.408 26.0249 24.5484C26.0755 24.6889 26.1004 24.8393 26.0996 24.9998C26.0996 25.1603 26.0747 25.3108 26.0249 25.4512C25.9752 25.5917 25.8897 25.7221 25.7685 25.8424L21.4352 30.1758C21.1945 30.4165 20.9136 30.5268 20.5926 30.5068C20.2716 30.4867 20.0008 30.3663 19.7801 30.1457ZM26.2037 35.8332C25.8627 35.8332 25.577 35.718 25.3467 35.4877C25.1164 35.2574 25.0008 34.9713 25 34.6295C25 34.2884 25.1156 34.0023 25.3467 33.7712C25.5778 33.5401 25.8635 33.425 26.2037 33.4258H33.4259V16.5739H26.2037C25.8627 16.5739 25.5766 16.4584 25.3455 16.2272C25.1144 15.9961 24.9992 15.7105 25 15.3702C25 15.0292 25.1156 14.7431 25.3467 14.512C25.5778 14.2809 25.8635 14.1657 26.2037 14.1665H33.4259C34.088 14.1665 34.6549 14.4024 35.1268 14.8743C35.5986 15.3461 35.8342 15.9127 35.8334 16.5739V33.4258C35.8334 34.0878 35.5974 34.6547 35.1256 35.1266C34.6537 35.5984 34.0872 35.834 33.4259 35.8332H26.2037Z" fill="white" stroke="white"/>
</svg>
