<svg width="60" height="60" viewBox="0 0 60 60" fill="none" xmlns="http://www.w3.org/2000/svg">
<rect width="60" height="60" rx="6" fill="#5E7BC7"/>
<path d="M36.4933 34.5798C37.7586 32.8964 38.4487 30.826 38.4487 28.7243C38.4487 23.3603 34.0884 19 28.7243 19C23.3603 19 19 23.3603 19 28.7243C19 34.0884 23.3603 38.4487 28.7243 38.4487C30.826 38.4487 32.8964 37.7586 34.5798 36.4933L39.076 41L41 39.076L36.4933 34.5798ZM33.6074 33.7538C32.2899 35.0295 30.5542 35.73 28.7243 35.73C26.8945 35.73 25.0856 34.9981 23.7681 33.6702C22.4401 32.3422 21.7186 30.5856 21.7186 28.7243C21.7186 24.866 24.866 21.7186 28.7243 21.7186C32.5827 21.7186 35.73 24.866 35.73 28.7243C35.73 30.5542 35.0295 32.2899 33.7538 33.6074L33.6074 33.7538Z" fill="white"/>
</svg>
