<svg width="15" height="20" class="favorite" viewBox="0 0 15 20" fill="none" xmlns="http://www.w3.org/2000/svg">
<path d="M1.5 19.9055C1.14286 20.058 0.803571 20.0248 0.482143 19.806C0.160714 19.5871 0 19.2675 0 18.8473V2.28799C0 1.65879 0.21 1.11997 0.63 0.671526C1.05 0.22308 1.55429 -0.00076072 2.14286 1.94226e-06H12.8571C13.4464 1.94226e-06 13.9511 0.224225 14.3711 0.67267C14.7911 1.12112 15.0007 1.65955 15 2.28799V18.8473C15 19.2668 14.8393 19.5863 14.5179 19.806C14.1964 20.0256 13.8571 20.0588 13.5 19.9055L7.5 17.1599L1.5 19.9055Z" fill="#C75E5E"/>

</svg>
